<svg xmlns="http://www.w3.org/2000/svg" width="773" height="133" viewBox="0 0 773 133">
<g>
<path d="M 773.00 133.00 L 0.00 133.00 L 34.75 132.95 C36.35,132.95 37.87,132.94 39.33,132.94 C58.35,132.92 65.85,132.91 65.96,132.00 C66.04,131.40 62.96,130.42 57.88,128.80 C57.28,128.61 56.65,128.41 56.00,128.20 C52.42,127.06 42.53,123.59 34.00,120.49 C25.48,117.39 16.09,114.03 13.15,113.03 C2.70,109.46 4.27,109.00 26.73,109.00 C44.66,109.00 48.10,108.76 49.44,107.42 C50.84,106.02 50.99,100.93 50.76,62.67 L 50.50 19.50 L 43.50 19.50 L 43.00 55.05 C42.55,86.87 42.31,90.88 40.73,93.30 L 38.95 96.00 L 6.80 96.00 L 3.87 92.86 L 0.94 89.72 L 1.22 49.27 L 1.50 8.82 L 3.86 6.91 C6.13,5.07 8.73,5.00 72.02,5.00 L 137.82 5.00 L 140.41 8.08 L 143.00 11.15 L 143.00 49.63 C143.00,90.61 142.80,92.43 138.06,94.97 C136.97,95.55 129.35,96.00 120.64,96.00 L 105.15 96.00 L 103.07 93.37 C101.07,90.81 101.00,89.62 101.00,55.99 L 101.00 54.71 C101.00,26.88 101.00,20.45 98.50,19.25 C97.75,18.90 96.77,19.01 95.50,19.16 C95.44,19.16 95.38,19.17 95.31,19.18 L 92.50 19.50 L 92.24 63.00 C92.00,103.01 92.11,106.60 93.68,107.75 C94.91,108.65 101.06,109.00 115.89,109.00 C138.31,109.00 139.51,109.47 127.74,113.63 C124.31,114.84 114.97,118.15 107.00,120.99 C99.03,123.83 90.98,126.53 89.13,127.00 C87.27,127.46 85.27,128.33 84.68,128.92 C84.08,129.52 82.84,130.00 81.91,130.00 C80.99,130.00 78.94,130.67 77.36,131.49 C74.82,132.82 113.33,132.99 423.75,132.99 L 773.00 133.00 ZM 610.42 98.39 C607.41,99.55 587.46,99.06 586.20,97.80 C585.32,96.92 585.00,88.46 585.00,65.97 L 585.00 35.35 L 587.31 33.17 C589.62,31.00 589.73,31.00 637.26,31.00 L 684.89 31.00 L 686.44 33.22 C687.77,35.11 688.00,39.87 688.00,65.00 C688.00,90.13 687.77,94.89 686.44,96.78 C684.99,98.85 684.13,99.00 673.48,99.00 C663.22,99.00 661.97,98.80 661.04,97.07 C660.39,95.87 660.00,84.79 660.00,68.00 C660.00,51.21 659.61,40.13 658.96,38.93 C657.81,36.77 654.04,36.36 652.20,38.20 C651.32,39.08 651.00,47.01 651.00,67.63 C651.00,91.96 650.78,96.07 649.43,97.43 C648.20,98.66 645.55,99.00 637.15,99.00 C635.99,99.00 634.91,99.01 633.92,99.02 C629.32,99.08 626.48,99.11 624.73,97.75 C621.93,95.56 621.94,89.75 621.99,74.63 C621.99,72.59 622.00,70.40 622.00,68.01 C622.00,44.01 621.78,39.92 620.43,38.57 C618.30,36.44 617.33,36.58 614.45,39.45 L 612.00 41.91 L 612.00 69.85 C612.00,94.40 611.81,97.86 610.42,98.39 ZM 420.70 98.21 C420.04,98.63 405.92,98.98 389.32,98.98 L 359.15 99.00 L 357.07 96.37 C355.08,93.84 355.00,92.56 355.00,64.52 C355.00,36.10 355.06,35.26 357.10,33.40 C359.06,31.63 361.34,31.48 389.45,31.21 C415.64,30.96 419.86,31.12 420.96,32.45 C422.73,34.59 422.48,97.07 420.70,98.21 ZM 534.96 97.07 C534.03,98.82 532.77,99.00 521.66,99.00 C513.46,99.00 509.00,98.60 508.20,97.80 C507.32,96.92 507.00,88.32 507.00,65.36 C507.00,34.20 507.01,34.11 509.22,32.56 C511.11,31.23 515.92,31.00 541.52,31.00 C563.58,31.00 571.92,31.32 572.80,32.20 C574.52,33.92 574.52,96.08 572.80,97.80 C572.00,98.60 567.68,99.00 559.96,99.00 C559.59,99.00 559.23,99.00 558.88,99.00 C552.19,99.00 548.76,99.01 546.96,97.29 C544.97,95.40 544.97,91.39 544.78,82.96 L 544.50 70.50 L 541.69 70.18 C536.63,69.60 536.00,71.10 536.00,83.69 C536.00,89.98 535.53,96.00 534.96,97.07 ZM 726.13 97.35 C725.00,98.71 722.71,99.00 713.08,99.00 C705.33,99.00 701.00,98.60 700.20,97.80 C699.32,96.92 699.00,88.35 699.00,65.45 C699.00,36.55 699.13,34.19 700.83,32.65 C702.45,31.19 706.19,31.00 733.29,31.00 C762.56,31.00 763.98,31.09 764.96,32.93 C765.61,34.15 766.00,46.25 766.00,65.36 C766.00,91.75 765.79,96.07 764.43,97.43 C763.18,98.68 760.46,99.00 751.13,99.00 C743.34,99.00 739.00,98.60 738.20,97.80 C737.40,97.00 737.00,92.69 737.00,84.99 C737.00,71.81 736.18,69.63 731.45,70.16 L 728.50 70.50 L 728.00 83.10 C727.66,91.67 727.06,96.23 726.13,97.35 ZM 305.13 97.35 C303.99,98.72 301.66,99.00 291.44,99.00 C284.66,99.00 278.88,98.62 278.59,98.15 C278.30,97.68 278.02,83.17 277.96,65.92 C277.85,34.79 277.87,34.53 280.04,32.77 C282.02,31.17 285.00,31.00 311.96,31.00 C339.49,31.00 341.81,31.14 343.35,32.83 C344.67,34.30 345.00,36.83 345.00,45.67 C345.00,59.81 344.83,60.00 332.24,60.00 C322.98,60.00 320.00,61.09 320.00,64.49 C320.00,69.75 324.42,72.00 334.75,72.00 C339.52,72.00 343.07,72.47 343.80,73.20 C344.58,73.98 345.00,78.10 345.00,85.05 C345.00,98.93 344.93,99.00 331.11,99.00 C330.67,99.00 330.25,99.00 329.84,99.00 C323.44,99.01 320.23,99.01 318.62,97.41 C316.99,95.79 316.99,92.54 316.99,86.00 C316.99,85.59 316.99,85.16 316.98,84.71 C316.98,78.00 316.59,71.91 316.13,71.18 C315.61,70.35 313.84,69.98 311.40,70.18 L 307.50 70.50 L 307.00 83.10 C306.66,91.67 306.06,96.23 305.13,97.35 ZM 456.43 97.43 C455.20,98.65 452.59,99.00 444.58,99.00 C443.61,99.00 442.71,99.01 441.87,99.02 C437.78,99.07 435.15,99.10 433.47,97.85 C430.44,95.62 430.46,89.28 430.49,71.56 C430.50,69.52 430.50,67.34 430.50,65.00 C430.50,37.11 430.62,35.07 432.40,33.10 C434.26,31.05 435.08,31.00 464.58,31.00 C490.77,31.00 495.07,31.21 496.43,32.57 C497.67,33.81 498.00,36.47 498.00,45.07 C498.00,59.51 497.57,60.00 484.93,60.00 C474.42,60.00 472.00,60.91 472.00,64.88 C472.00,69.94 475.01,71.46 485.85,71.85 C491.16,72.04 496.06,72.66 496.75,73.22 C497.61,73.92 498.00,77.60 498.00,84.97 L 498.00 85.12 C498.00,91.96 498.00,95.43 496.27,97.19 C494.48,99.00 490.85,99.00 483.48,99.00 L 483.16 99.00 C476.09,99.00 472.55,99.00 470.78,97.23 C469.00,95.45 469.00,91.90 469.00,84.77 L 469.00 84.61 C469.00,72.42 468.19,70.00 464.12,70.00 C458.99,70.00 458.00,72.39 458.00,84.76 C458.00,93.51 457.67,96.19 456.43,97.43 ZM 266.96 97.07 C265.98,98.91 264.56,99.00 235.46,99.00 C206.33,99.00 204.91,98.91 203.00,97.00 C201.09,95.09 201.00,93.67 201.00,64.53 L 201.00 34.05 L 203.95 32.53 C206.40,31.26 211.92,31.00 236.42,31.00 C264.57,31.00 265.98,31.09 266.96,32.93 C268.45,35.71 268.31,57.29 266.80,58.80 C265.99,59.61 261.45,60.00 252.92,60.00 C242.38,60.00 240.02,59.72 238.88,58.35 C238.05,57.36 237.31,53.15 237.01,47.71 C236.61,40.63 236.13,38.48 234.77,37.62 C233.43,36.78 232.64,36.93 231.27,38.30 C229.67,39.90 229.50,42.49 229.50,65.00 C229.50,87.51 229.67,90.10 231.27,91.70 C232.64,93.07 233.43,93.22 234.77,92.38 C236.14,91.52 236.60,89.37 237.00,82.06 C237.41,74.44 237.84,72.59 239.44,71.42 C241.98,69.57 264.98,69.38 266.80,71.20 C268.31,72.71 268.45,94.29 266.96,97.07 ZM 189.17 97.35 C187.68,98.69 185.11,99.00 175.37,99.00 C167.39,99.00 163.00,98.60 162.20,97.80 C160.48,96.08 160.48,33.92 162.20,32.20 C163.00,31.40 167.31,31.00 174.98,31.00 C176.36,31.00 177.62,30.98 178.77,30.96 C183.44,30.89 186.34,30.85 188.14,32.23 C191.10,34.51 191.07,40.65 191.02,56.87 C191.01,59.31 191.00,61.98 191.00,64.90 C191.00,93.46 190.87,95.81 189.17,97.35 ZM 385.56 89.78 C387.15,92.05 391.39,92.80 392.49,91.01 C392.83,90.46 393.11,82.23 393.12,72.70 C393.13,63.18 393.48,54.84 393.90,54.16 C394.32,53.49 394.16,49.91 393.56,46.22 C392.52,39.83 392.32,39.48 389.53,39.16 C384.32,38.57 384.00,40.04 384.00,64.97 C384.00,83.79 384.26,87.93 385.56,89.78 ZM 174.30 0.00 L 177.96 0.00 L 182.48 4.33 C186.17,7.86 187.00,9.31 187.00,12.19 C187.00,15.42 184.40,20.20 181.53,22.23 C180.97,22.64 178.18,22.98 175.34,22.98 C170.83,23.00 169.86,22.62 167.67,20.02 C162.45,13.81 163.68,7.16 170.95,2.25 L 174.30 0.00 ZM 459.65 58.17 C461.53,60.25 466.01,60.59 467.80,58.80 C469.74,56.86 469.39,41.08 467.35,38.83 C465.32,36.59 463.15,36.51 460.22,38.56 C458.24,39.95 458.00,40.98 458.00,48.23 C458.00,54.38 458.40,56.79 459.65,58.17 ZM 310.50 60.25 C311.60,60.49 313.40,60.14 314.50,59.48 C316.21,58.44 316.54,57.01 316.79,49.67 C317.04,42.13 316.83,40.83 315.04,39.04 C312.49,36.49 310.80,36.46 308.57,38.92 C307.19,40.45 306.85,42.62 306.90,49.60 C306.97,58.76 307.23,59.53 310.50,60.25 ZM 538.12 59.37 C539.75,60.52 540.77,60.61 542.62,59.77 C544.86,58.74 545.00,58.17 545.00,50.04 C545.00,40.94 544.21,39.00 540.50,39.00 C536.83,39.00 536.00,40.95 536.00,49.64 C536.00,56.90 536.25,58.06 538.12,59.37 ZM 729.43 58.67 C730.21,60.70 734.78,60.28 735.96,58.07 C737.46,55.27 737.27,42.75 735.69,40.60 C734.89,39.50 733.45,38.94 731.94,39.16 C729.59,39.49 729.49,39.82 729.21,48.42 C729.05,53.33 729.15,57.94 729.43,58.67 Z" fill="rgb(35,30,121)"/>
<path d="M 0.00 91.82 L 0.00 5.50 C0.00,8.52 0.45,11.00 1.00,11.00 C1.18,11.00 1.34,10.93 1.49,10.82 L 1.22 49.27 L 0.94 89.72 L 3.87 92.86 L 6.80 96.00 L 38.95 96.00 L 40.73 93.30 C42.31,90.88 42.55,86.87 43.00,55.05 L 43.50 19.50 L 43.00 56.15 C42.53,90.39 42.37,92.93 40.60,94.90 C38.81,96.87 37.69,97.00 22.42,97.00 C6.38,97.00 6.11,96.96 3.08,94.41 ZM 3.16 7.48 C3.47,7.14 3.84,6.83 4.22,6.56 C4.55,6.33 5.05,6.13 5.92,5.96 C4.84,6.21 4.34,6.52 3.86,6.91 Z" fill="rgb(167,165,205)"/>
<path d="M -0.00 112.41 L -0.00 91.82 L 3.08 94.41 C6.11,96.96 6.38,97.00 22.42,97.00 C37.69,97.00 38.81,96.87 40.60,94.90 C42.37,92.93 42.53,90.39 43.00,56.15 L 43.50 19.50 L 47.00 19.50 L 50.50 19.50 L 50.76 62.67 C50.99,100.93 50.84,106.02 49.44,107.42 C48.10,108.76 44.66,109.00 26.73,109.00 C4.27,109.00 2.70,109.46 13.15,113.03 C16.09,114.03 25.48,117.39 34.00,120.49 C42.53,123.59 52.42,127.06 56.00,128.20 C71.34,133.11 72.32,132.89 34.75,132.95 L 0.00 133.00 L -0.00 112.41 ZM 77.36 131.49 C78.94,130.67 80.99,130.00 81.91,130.00 C82.84,130.00 84.08,129.52 84.68,128.92 C85.27,128.33 87.27,127.46 89.13,127.00 C90.98,126.53 99.03,123.83 107.00,120.99 C114.97,118.15 124.31,114.84 127.74,113.63 C139.51,109.47 138.31,109.00 115.89,109.00 C101.06,109.00 94.91,108.65 93.68,107.75 C92.11,106.60 92.00,103.01 92.24,63.00 L 92.50 19.50 L 95.31 19.18 C101.07,18.52 101.00,18.09 101.00,55.99 C101.00,89.62 101.07,90.81 103.07,93.37 L 105.15 96.00 L 120.64 96.00 C129.35,96.00 136.97,95.55 138.06,94.97 C142.80,92.43 143.00,90.61 143.00,49.63 L 143.00 11.15 L 140.41 8.08 L 137.82 5.00 L 72.13 5.00 C14.30,5.00 6.18,5.19 4.22,6.56 C3.00,7.41 2.00,8.76 2.00,9.56 C2.00,10.35 1.55,11.00 1.00,11.00 C0.45,11.00 0.00,8.52 0.00,5.50 L 0.00 0.00 L 87.15 0.00 L 174.30 0.00 L 170.95 2.25 C163.68,7.16 162.45,13.81 167.67,20.02 C169.86,22.62 170.83,23.00 175.34,22.98 C178.18,22.98 180.97,22.64 181.53,22.23 C184.40,20.20 187.00,15.42 187.00,12.19 C187.00,9.31 186.17,7.86 182.48,4.33 L 177.96 0.00 L 475.48 0.00 L 773.00 0.00 L 773.00 66.50 L 773.00 133.00 L 423.75 132.99 C113.33,132.99 74.82,132.82 77.36,131.49 ZM 189.17 97.35 C190.87,95.81 191.00,93.46 191.00,64.90 C191.00,27.85 192.49,31.00 174.98,31.00 C167.31,31.00 163.00,31.40 162.20,32.20 C160.48,33.92 160.48,96.08 162.20,97.80 C163.00,98.60 167.39,99.00 175.37,99.00 C185.11,99.00 187.68,98.69 189.17,97.35 ZM 266.96 97.07 C268.45,94.29 268.31,72.71 266.80,71.20 C264.98,69.38 241.98,69.57 239.44,71.42 C237.84,72.59 237.41,74.44 237.00,82.06 C236.60,89.37 236.14,91.52 234.77,92.38 C233.43,93.22 232.64,93.07 231.27,91.70 C229.67,90.10 229.50,87.51 229.50,65.00 C229.50,42.49 229.67,39.90 231.27,38.30 C232.64,36.93 233.43,36.78 234.77,37.62 C236.13,38.48 236.61,40.63 237.01,47.71 C237.31,53.15 238.05,57.36 238.88,58.35 C240.02,59.72 242.38,60.00 252.92,60.00 C261.45,60.00 265.99,59.61 266.80,58.80 C268.31,57.29 268.45,35.71 266.96,32.93 C265.98,31.09 264.57,31.00 236.42,31.00 C211.92,31.00 206.40,31.26 203.95,32.53 L 201.00 34.05 L 201.00 64.53 C201.00,93.67 201.09,95.09 203.00,97.00 C204.91,98.91 206.33,99.00 235.46,99.00 C264.56,99.00 265.98,98.91 266.96,97.07 ZM 305.13 97.35 C306.06,96.23 306.66,91.67 307.00,83.10 L 307.50 70.50 L 311.40 70.18 C313.84,69.98 315.61,70.35 316.13,71.18 C316.59,71.91 316.98,78.00 316.98,84.71 C317.00,99.46 316.55,99.00 331.11,99.00 C344.93,99.00 345.00,98.93 345.00,85.05 C345.00,78.10 344.58,73.98 343.80,73.20 C343.07,72.47 339.52,72.00 334.75,72.00 C324.42,72.00 320.00,69.75 320.00,64.49 C320.00,61.09 322.98,60.00 332.24,60.00 C344.83,60.00 345.00,59.81 345.00,45.67 C345.00,36.83 344.67,34.30 343.35,32.83 C341.81,31.14 339.49,31.00 311.96,31.00 C285.00,31.00 282.02,31.17 280.04,32.77 C277.87,34.53 277.85,34.79 277.96,65.92 C278.02,83.17 278.30,97.68 278.59,98.15 C278.88,98.62 284.66,99.00 291.44,99.00 C301.66,99.00 303.99,98.72 305.13,97.35 ZM 420.70 98.21 C422.48,97.07 422.73,34.59 420.96,32.45 C419.86,31.12 415.64,30.96 389.45,31.21 C361.34,31.48 359.06,31.63 357.10,33.40 C355.06,35.26 355.00,36.10 355.00,64.52 C355.00,92.56 355.08,93.84 357.07,96.37 L 359.15 99.00 L 389.32 98.98 C405.92,98.98 420.04,98.63 420.70,98.21 ZM 456.43 97.43 C457.67,96.19 458.00,93.51 458.00,84.76 C458.00,72.39 458.99,70.00 464.12,70.00 C468.19,70.00 469.00,72.42 469.00,84.61 C469.00,99.06 468.94,99.00 483.33,99.00 C498.05,99.00 498.00,99.05 498.00,84.97 C498.00,77.60 497.61,73.92 496.75,73.22 C496.06,72.66 491.16,72.04 485.85,71.85 C475.01,71.46 472.00,69.94 472.00,64.88 C472.00,60.91 474.42,60.00 484.93,60.00 C497.57,60.00 498.00,59.51 498.00,45.07 C498.00,36.47 497.67,33.81 496.43,32.57 C495.07,31.21 490.77,31.00 464.58,31.00 C435.08,31.00 434.26,31.05 432.40,33.10 C430.62,35.07 430.50,37.11 430.50,65.00 C430.50,101.49 429.47,99.00 444.58,99.00 C452.59,99.00 455.20,98.65 456.43,97.43 ZM 534.96 97.07 C535.53,96.00 536.00,89.98 536.00,83.69 C536.00,71.10 536.63,69.60 541.69,70.18 L 544.50 70.50 L 544.78 82.96 C545.16,99.41 544.77,99.00 559.96,99.00 C567.68,99.00 572.00,98.60 572.80,97.80 C574.52,96.08 574.52,33.92 572.80,32.20 C571.92,31.32 563.58,31.00 541.52,31.00 C515.92,31.00 511.11,31.23 509.22,32.56 C507.01,34.11 507.00,34.20 507.00,65.36 C507.00,88.32 507.32,96.92 508.20,97.80 C509.00,98.60 513.46,99.00 521.66,99.00 C532.77,99.00 534.03,98.82 534.96,97.07 ZM 610.42 98.39 C611.81,97.86 612.00,94.40 612.00,69.85 L 612.00 41.91 L 614.45 39.45 C617.33,36.58 618.30,36.44 620.43,38.57 C621.78,39.92 622.00,44.01 622.00,68.01 C622.00,101.55 620.75,99.00 637.15,99.00 C645.55,99.00 648.20,98.66 649.43,97.43 C650.78,96.07 651.00,91.96 651.00,67.63 C651.00,47.01 651.32,39.08 652.20,38.20 C654.04,36.36 657.81,36.77 658.96,38.93 C659.61,40.13 660.00,51.21 660.00,68.00 C660.00,84.79 660.39,95.87 661.04,97.07 C661.97,98.80 663.22,99.00 673.48,99.00 C684.13,99.00 684.99,98.85 686.44,96.78 C687.77,94.89 688.00,90.13 688.00,65.00 C688.00,39.87 687.77,35.11 686.44,33.22 L 684.89 31.00 L 637.26 31.00 C589.73,31.00 589.62,31.00 587.31,33.17 L 585.00 35.35 L 585.00 65.97 C585.00,88.46 585.32,96.92 586.20,97.80 C587.46,99.06 607.41,99.55 610.42,98.39 ZM 726.13 97.35 C727.06,96.23 727.66,91.67 728.00,83.10 L 728.50 70.50 L 731.45 70.16 C736.18,69.63 737.00,71.81 737.00,84.99 C737.00,92.69 737.40,97.00 738.20,97.80 C739.00,98.60 743.34,99.00 751.13,99.00 C760.46,99.00 763.18,98.68 764.43,97.43 C765.79,96.07 766.00,91.75 766.00,65.36 C766.00,46.25 765.61,34.15 764.96,32.93 C763.98,31.09 762.56,31.00 733.29,31.00 C706.19,31.00 702.45,31.19 700.83,32.65 C699.13,34.19 699.00,36.55 699.00,65.45 C699.00,88.35 699.32,96.92 700.20,97.80 C701.00,98.60 705.33,99.00 713.08,99.00 C722.71,99.00 725.00,98.71 726.13,97.35 ZM 310.50 60.25 C307.23,59.53 306.97,58.76 306.90,49.60 C306.85,42.62 307.19,40.45 308.57,38.92 C310.80,36.46 312.49,36.49 315.04,39.04 C316.83,40.83 317.04,42.13 316.79,49.67 C316.54,57.01 316.21,58.44 314.50,59.48 C313.40,60.14 311.60,60.49 310.50,60.25 ZM 385.56 89.78 C384.26,87.93 384.00,83.79 384.00,64.97 C384.00,40.04 384.32,38.57 389.53,39.16 C392.32,39.48 392.52,39.83 393.56,46.22 C394.16,49.91 394.32,53.49 393.90,54.16 C393.48,54.84 393.13,63.18 393.12,72.70 C393.11,82.23 392.83,90.46 392.49,91.01 C391.39,92.80 387.15,92.05 385.56,89.78 ZM 459.65 58.17 C458.40,56.79 458.00,54.38 458.00,48.23 C458.00,40.98 458.24,39.95 460.22,38.56 C463.15,36.51 465.32,36.59 467.35,38.83 C469.39,41.08 469.74,56.86 467.80,58.80 C466.01,60.59 461.53,60.25 459.65,58.17 ZM 538.12 59.37 C536.25,58.06 536.00,56.90 536.00,49.64 C536.00,40.95 536.83,39.00 540.50,39.00 C544.21,39.00 545.00,40.94 545.00,50.04 C545.00,58.17 544.86,58.74 542.62,59.77 C540.77,60.61 539.75,60.52 538.12,59.37 ZM 729.43 58.67 C729.15,57.94 729.05,53.33 729.21,48.42 C729.49,39.82 729.59,39.49 731.94,39.16 C733.45,38.94 734.89,39.50 735.69,40.60 C737.27,42.75 737.46,55.27 735.96,58.07 C734.78,60.28 730.21,60.70 729.43,58.67 Z" fill="rgb(252,252,253)"/>
</g>
</svg>